PathFileType  4	(X/Y/Z) C:\Users\antoi\Documents\MyRepositories\mobilecap\ResultsAnalysis
DataRate	CameraRate	NumFrames	NumMarkers	Units	OrigDataRate	OrigDataStartFrame	OrigNumFrames
100.0	100.0	6	51	mm	100.0	1181	1349
Frame#	Time	r_knee			r_shank_antsup			r_ankle			r_calc			r_5meta			r_toe			L_knee			L_shank_antsup			L_ankle			L_calc			L_5meta			L_toe			r_sh2			r_sh3			r_sh4			L_sh2			L_sh3			r_thigh1			r_thigh2			r_thigh3			r_thigh4			r_thigh5			L_thigh1			L_thigh2			L_thigh3			L_thigh4			r.ASIS			r.PSIS			L.ASIS			L.PSIS			C7			R_Shoulder			L_Shoulder			R_Sternum			L_Sternum			R_humerus			R_elbow_med			R_elbow_lat			R_forearm			R_wrist_radius			R_wrist_ulna			L_humerus			L_elbow_med			L_elbow_lat			L_forearm			L_wrist_radius			L_wrist_ulna			R_HJC			L_HJC			R_HJC_reg			L_HJC_reg			
		X1	Y1	Z1	X2	Y2	Z2	X3	Y3	Z3	X4	Y4	Z4	X5	Y5	Z5	X6	Y6	Z6	X7	Y7	Z7	X8	Y8	Z8	X9	Y9	Z9	X10	Y10	Z10	X11	Y11	Z11	X12	Y12	Z12	X13	Y13	Z13	X14	Y14	Z14	X15	Y15	Z15	X16	Y16	Z16	X17	Y17	Z17	X18	Y18	Z18	X19	Y19	Z19	X20	Y20	Z20	X21	Y21	Z21	X22	Y22	Z22	X23	Y23	Z23	X24	Y24	Z24	X25	Y25	Z25	X26	Y26	Z26	X27	Y27	Z27	X28	Y28	Z28	X29	Y29	Z29	X30	Y30	Z30	X31	Y31	Z31	X32	Y32	Z32	X33	Y33	Z33	X34	Y34	Z34	X35	Y35	Z35	X36	Y36	Z36	X37	Y37	Z37	X38	Y38	Z38	X39	Y39	Z39	X40	Y40	Z40	X41	Y41	Z41	X42	Y42	Z42	X43	Y43	Z43	X44	Y44	Z44	X45	Y45	Z45	X46	Y46	Z46	X47	Y47	Z47	X48	Y48	Z48	X49	Y49	Z49	X50	Y50	Z50	X51	Y51	Z51	

1181	11.80000000	-126.05435	485.30362	-332.31181	-85.77836	362.48491	-350.24786	-283.84066	98.27861	-425.38574	-345.68408	68.68113	-485.56116	-171.65296	36.54660	-351.53930	-121.03753	60.46987	-415.12960	-151.66613	477.37337	-1002.05431	-95.29886	374.73599	-986.06747	-285.04408	91.30887	-906.76893	-347.28849	70.71803	-844.37454	-157.55563	33.51001	-955.23095	-117.07626	59.26491	-891.52941	-123.38893	260.96718	-395.86395	-155.14744	370.56908	-316.87660	-187.47039	259.58423	-341.42152	-178.08690	397.22241	-1016.03319	-198.63996	277.68744	-1005.57046	-317.45045	614.35040	-447.21784	-210.74659	607.38656	-413.32733	-207.39816	581.60123	-351.07081	-350.32794	552.62712	-357.57192	-233.73375	535.11234	-333.63950	-363.02194	600.32936	-899.33698	-237.60401	588.73085	-948.15253	-394.95071	505.88208	-952.17213	-263.48529	488.93585	-993.93565	-408.73808	609.07629	-540.28007	-500.41772	680.22915	-609.02569	-394.29085	571.34237	-800.29381	-503.03117	676.60979	-703.17338	-99.61724	980.89915	-656.75667	-26.07900	881.63171	-483.98031	-8.91150	889.95263	-808.86542	-14.08604	841.89753	-655.80849	-27.85494	825.91644	-657.98465	48.88186	785.39723	-413.47362	123.84468	563.84442	-432.00151	150.18144	614.77924	-360.60519	218.51816	734.47408	-454.13835	278.53287	806.87423	-518.43713	318.28050	793.02152	-514.85587	76.28272	790.03792	-883.85545	151.04480	571.12116	-870.23365	186.01995	628.30106	-923.38406	216.52763	732.57107	-800.16226	272.82192	806.52814	-735.54141	317.20349	795.54907	-751.96741	-481.65006	547.71347	-558.77050	-490.42661	522.59717	-770.49687	-488.43320	551.24404	-572.13575	-493.24910	544.57500	-745.61015	
1182	11.81000000	-126.26164	485.08541	-331.52833	-85.88299	362.27837	-349.61534	-283.79197	98.27007	-425.41819	-345.62427	68.75350	-485.68353	-171.61029	36.44681	-351.56658	-121.02696	60.44270	-415.09443	-151.32674	476.94371	-1002.43504	-95.01566	374.43657	-986.38218	-285.00452	91.31544	-906.81582	-347.18911	70.88702	-844.45847	-157.57400	33.50086	-955.14507	-117.05215	59.25337	-891.51710	-123.36530	260.88161	-395.48008	-155.30892	370.36655	-316.22216	-188.01290	259.99240	-340.49847	-177.76071	396.76627	-1016.25939	-198.30193	277.39957	-1005.77834	-318.07240	612.73650	-447.33948	-211.45593	606.41857	-413.10059	-208.14675	580.85338	-350.80707	-350.94494	551.09786	-357.54542	-234.30656	534.15843	-333.42406	-363.40634	598.36142	-899.24236	-237.81434	587.56614	-948.26595	-394.81283	503.89001	-952.31217	-263.20568	487.78329	-994.31405	-409.18081	606.92980	-540.65666	-500.47624	677.33017	-609.72507	-393.47734	568.54708	-800.50635	-503.00115	673.71247	-703.72378	-99.06262	977.57353	-657.02982	-25.73097	878.31323	-484.01502	-8.24438	886.61359	-808.93172	-14.34719	837.29948	-652.84069	-27.01608	823.15128	-659.10181	49.17649	782.05718	-413.54879	124.26570	560.19897	-431.83572	150.15281	611.45650	-360.44440	218.60325	731.15288	-454.01950	278.70665	803.46535	-518.29666	318.42431	789.72396	-514.58246	77.04489	786.76712	-883.71676	151.84410	567.86746	-870.23095	186.85771	625.04050	-923.16952	217.12900	729.25556	-800.06209	273.28255	803.24366	-735.39625	317.62643	792.29926	-751.35522	-481.61102	545.11959	-559.16807	-489.60669	519.58425	-770.87479	-488.16995	548.46898	-572.49789	-492.82987	541.79242	-745.97886	
1183	11.82000000	-126.50473	484.83046	-331.06098	-86.02586	362.13168	-349.12417	-283.76471	98.21060	-425.47302	-345.60501	68.73785	-485.73085	-171.65526	36.35475	-351.60726	-121.03630	60.37187	-415.02941	-150.94454	476.73912	-1003.03157	-94.70127	374.22636	-986.65650	-284.94082	91.36118	-906.87958	-347.15081	70.94045	-844.45464	-157.58688	33.48833	-955.08537	-117.04125	59.22271	-891.49834	-123.44758	260.74217	-395.11581	-155.41356	370.10455	-315.82205	-188.36326	260.31381	-339.82628	-177.37506	396.33290	-1016.31070	-198.05716	277.21020	-1005.91507	-318.62036	611.18861	-447.50055	-212.09135	605.53067	-412.90183	-208.91198	580.21471	-350.52755	-351.51019	549.51966	-357.62925	-234.72088	533.24700	-333.30897	-363.77602	596.48163	-899.03262	-238.03502	586.62113	-948.49355	-394.67455	502.06679	-952.37248	-262.98343	486.89452	-994.86703	-409.52932	604.88531	-541.08789	-500.68369	674.53418	-610.19181	-392.85998	566.50527	-800.88372	-502.99259	670.91651	-704.32270	-98.47085	974.47324	-657.25240	-25.39206	875.08012	-484.22732	-7.60846	883.42798	-808.96052	-14.75896	832.89328	-650.05562	-25.67300	821.41504	-661.63046	49.39124	778.78828	-413.60067	124.55762	556.79977	-431.84249	150.00343	608.24671	-360.22502	218.65244	727.97102	-453.90785	278.82475	800.33751	-518.08692	318.53720	786.69801	-514.39091	77.76123	783.68931	-883.78494	152.63403	564.85004	-870.30771	187.72548	621.99348	-923.02312	217.65771	726.07699	-799.70287	273.71633	800.05736	-734.94587	318.00746	789.26839	-750.91002	-481.38799	542.53199	-559.71725	-488.73148	516.97249	-771.44569	-487.97692	545.90213	-573.09243	-492.23271	539.23441	-746.58684	
1184	11.83000000	-126.76259	484.54648	-330.79676	-86.13276	361.98119	-348.82872	-283.75602	98.15451	-425.49962	-345.57362	68.66022	-485.78916	-171.75984	36.37329	-351.60685	-121.04000	60.30133	-414.96277	-150.60990	476.62090	-1003.68584	-94.35240	374.03346	-986.82979	-284.92037	91.37377	-906.89200	-347.26306	70.84126	-844.36796	-157.57951	33.49801	-955.06911	-117.02476	59.17618	-891.44111	-123.57333	260.59179	-394.85169	-155.52116	369.86883	-315.67195	-188.53106	260.27536	-339.55667	-176.96443	396.12137	-1016.45469	-197.86559	277.09351	-1005.98999	-319.20557	609.63053	-447.82735	-212.77002	604.73367	-412.74986	-209.67124	579.56454	-350.37281	-352.04168	548.00607	-357.81772	-235.13002	532.41396	-333.25490	-364.03460	594.76089	-898.86474	-238.26539	585.74576	-948.54539	-394.48750	500.43658	-952.64787	-262.77942	486.15055	-995.39453	-409.80956	602.74240	-541.77792	-500.82976	671.92514	-610.67707	-392.87584	564.48072	-801.57887	-502.99556	668.24862	-704.83398	-97.92409	971.59073	-657.46333	-25.07597	871.97196	-484.63374	-7.03331	880.38726	-809.06829	-15.28631	828.76734	-647.58386	-25.01196	818.97408	-662.90173	49.57418	775.69204	-413.79179	124.79889	553.49760	-432.19027	149.99886	605.06970	-360.37625	218.73398	724.97739	-453.83892	278.88837	797.45574	-517.92676	318.64534	783.80141	-514.23609	78.43415	780.75205	-883.85739	153.38986	562.08288	-870.42929	188.62774	619.19950	-922.94921	218.13379	723.11709	-799.15358	274.08396	797.11009	-734.36215	318.45698	786.44277	-750.57027	-481.26777	540.01822	-560.37332	-488.51005	514.57494	-772.11936	-488.07693	543.56317	-573.88412	-492.06809	536.78855	-747.38354	
1185	11.84000000	-127.02009	484.33592	-330.65864	-86.21617	361.82900	-348.66747	-283.75109	98.11579	-425.52783	-345.52455	68.58103	-485.90226	-171.81542	36.46555	-351.55977	-121.02478	60.30931	-414.95830	-150.28017	476.39607	-1003.96215	-93.98975	373.83765	-986.85609	-284.96201	91.29828	-906.83513	-347.33580	70.76585	-844.29554	-157.56942	33.52436	-955.04865	-116.98734	59.11820	-891.37513	-123.65630	260.49984	-394.75494	-155.65763	369.72476	-315.66952	-188.65829	260.07158	-339.51849	-176.55739	396.05368	-1016.61113	-197.64201	276.94662	-1005.94266	-319.89219	608.17439	-448.27921	-213.54216	603.93154	-412.82017	-210.34806	578.86578	-350.50619	-352.55931	546.68709	-358.11774	-235.65990	531.60988	-333.37792	-364.14443	593.31699	-898.81094	-238.33507	584.71758	-948.22265	-394.18210	499.02612	-953.14755	-262.47872	485.28245	-995.56918	-410.27855	600.77748	-542.51187	-500.83216	669.57473	-611.24310	-393.17427	562.15160	-802.25066	-502.99510	665.81335	-705.20418	-97.50052	968.94527	-657.76135	-24.81542	869.16359	-485.01417	-6.57523	877.54484	-809.27400	-15.85905	824.88973	-645.12443	-25.52901	815.06107	-661.54553	49.76427	772.93080	-414.08926	124.78398	550.22002	-432.12621	150.08278	602.21769	-360.60771	218.81449	722.25553	-453.70442	278.95767	794.78163	-517.72920	318.79670	781.04243	-513.97649	79.05978	777.96813	-883.72489	154.12475	559.42225	-870.32576	189.42545	616.55952	-922.67073	218.62742	720.44405	-798.80628	274.39822	794.44400	-733.94312	318.92285	783.82293	-750.22016	-481.44709	537.81386	-560.90088	-488.76763	512.25579	-772.62992	-488.39375	541.47504	-574.54496	-492.38774	534.52959	-748.04045	
1186	11.85000000	-127.28690	484.20407	-330.68605	-86.28282	361.73806	-348.57771	-283.76039	98.01652	-425.63287	-345.50408	68.49658	-486.00845	-171.80486	36.50877	-351.53088	-121.02834	60.33567	-414.99331	-149.82967	476.03528	-1003.76214	-93.60253	373.61594	-986.69307	-285.00553	91.22193	-906.81634	-347.23867	70.74554	-844.20826	-157.56974	33.54525	-955.01408	-116.95110	59.05589	-891.34424	-123.69845	260.45351	-394.77752	-155.78842	369.65973	-315.71720	-188.69487	259.93537	-339.58600	-176.16094	395.94805	-1016.58047	-197.30327	276.75412	-1005.79913	-320.59450	606.96794	-448.72052	-214.27868	603.13654	-413.13762	-210.92996	578.20658	-350.83888	-352.97641	545.53606	-358.43732	-236.19572	530.84924	-333.63135	-364.13262	592.06400	-898.81471	-238.19779	583.61252	-947.64555	-393.80980	497.78683	-953.61821	-262.02048	484.30879	-995.39534	-411.00158	599.24741	-543.01778	-500.84396	667.49544	-611.73816	-393.23144	559.97440	-802.61855	-502.97561	663.66655	-705.52525	-97.16420	966.59183	-658.14143	-24.62672	866.73887	-485.29478	-6.21389	874.95761	-809.44828	-16.61266	821.05783	-642.15426	-25.84908	811.73362	-660.59771	49.91979	770.48741	-414.40618	124.37528	547.17217	-431.48916	149.99682	599.82510	-360.54586	218.80697	719.79280	-453.50806	279.03986	792.28708	-517.47812	318.94414	778.53621	-513.60846	79.61076	775.44578	-883.57377	154.78694	556.89055	-870.05216	190.05157	614.10329	-922.30574	219.15406	718.04711	-798.76904	274.73615	792.07375	-733.78886	319.23519	781.38319	-749.87015	-481.79552	535.98483	-561.23951	-488.85341	510.13170	-772.94151	-488.74346	539.66208	-574.97421	-492.68632	532.57910	-748.46827	
